<svg width="20" height="16" viewBox="0 0 20 16" fill="none" xmlns="http://www.w3.org/2000/svg">
<path d="M1.9196 4.84372C2.1726 5.02225 2.93522 5.55248 4.20752 6.43414C5.47985 7.3158 6.45455 7.99465 7.13164 8.47074C7.20603 8.52293 7.36408 8.63637 7.60585 8.81122C7.84767 8.98619 8.0486 9.12759 8.20848 9.23544C8.36848 9.34325 8.5619 9.4642 8.78894 9.59809C9.0159 9.73186 9.22985 9.83248 9.43074 9.89909C9.63167 9.96625 9.81766 9.99951 9.98876 9.99951H9.99998H10.0112C10.1823 9.99951 10.3684 9.96621 10.5693 9.89909C10.7702 9.83248 10.9843 9.73174 11.2111 9.59809C11.4379 9.46404 11.6314 9.34321 11.7914 9.23544C11.9514 9.12759 12.1521 8.98619 12.394 8.81122C12.6358 8.63621 12.794 8.52293 12.8684 8.47074C13.5528 7.99465 15.294 6.78553 18.0915 4.84349C18.6347 4.46419 19.0884 4.00651 19.453 3.47077C19.8178 2.93526 20 2.37349 20 1.78575C20 1.29462 19.8232 0.874192 19.4697 0.524523C19.1163 0.174776 18.6977 0 18.2142 0H1.78564C1.21276 0 0.77189 0.193422 0.463111 0.580267C0.15437 0.967189 0 1.45082 0 2.03113C0 2.49987 0.20468 3.00782 0.613846 3.55466C1.02297 4.10154 1.45837 4.53127 1.9196 4.84372Z" fill="white"/>
<path d="M18.8838 6.03539C16.4435 7.68703 14.5906 8.97062 13.3259 9.88589C12.9018 10.1983 12.5578 10.4421 12.2936 10.6169C12.0293 10.7917 11.678 10.9703 11.2389 11.1525C10.8 11.335 10.3909 11.4259 10.0114 11.4259H10H9.9888C9.60934 11.4259 9.20006 11.335 8.76115 11.1525C8.32223 10.9703 7.97061 10.7917 7.70647 10.6169C7.44241 10.4421 7.09826 10.1983 6.6742 9.88589C5.66968 9.14934 3.82075 7.86567 1.12734 6.03539C0.703129 5.75285 0.327387 5.42898 0 5.06445V13.9258C0 14.4172 0.174776 14.8374 0.524523 15.1871C0.874191 15.5369 1.29465 15.7117 1.78575 15.7117H18.2144C18.7053 15.7117 19.1258 15.5369 19.4755 15.1871C19.8253 14.8372 20 14.4172 20 13.9258V5.06445C19.68 5.42143 19.3081 5.7453 18.8838 6.03539Z" fill="white"/>
</svg>
