<svg width="20" height="17" viewBox="0 0 20 17" fill="none" xmlns="http://www.w3.org/2000/svg">
<path d="M1.91997 5.5112C2.17296 5.68973 2.93559 6.21996 4.20788 7.10162C5.48022 7.98328 6.45491 8.66213 7.13201 9.13822C7.2064 9.19041 7.36444 9.30385 7.60622 9.4787C7.84804 9.65368 8.04896 9.79507 8.20885 9.90292C8.36885 10.0107 8.56227 10.1317 8.78931 10.2656C9.01627 10.3993 9.23022 10.5 9.4311 10.5666C9.63203 10.6337 9.81803 10.667 9.98913 10.667H10.0003H10.0116C10.1827 10.667 10.3688 10.6337 10.5697 10.5666C10.7705 10.5 10.9847 10.3992 11.2114 10.2656C11.4383 10.1315 11.6317 10.0107 11.7917 9.90292C11.9517 9.79507 12.1525 9.65368 12.3944 9.4787C12.6361 9.30369 12.7944 9.19041 12.8688 9.13822C13.5532 8.66213 15.2944 7.45301 18.0919 5.51097C18.635 5.13167 19.0888 4.67399 19.4533 4.13825C19.8181 3.60274 20.0003 3.04097 20.0003 2.45323C20.0003 1.9621 19.8235 1.54167 19.4701 1.192C19.1166 0.842256 18.6981 0.66748 18.2146 0.66748H1.786C1.21312 0.66748 0.772257 0.860903 0.463477 1.24775C0.154737 1.63467 0.000366211 2.1183 0.000366211 2.69861C0.000366211 3.16735 0.205047 3.6753 0.614212 4.22214C1.02334 4.76902 1.45873 5.19875 1.91997 5.5112Z" fill="#171619"/>
<path d="M18.8841 6.70288C16.4439 8.35451 14.591 9.6381 13.3263 10.5534C12.9022 10.8658 12.5581 11.1096 12.2939 11.2843C12.0297 11.4592 11.6783 11.6378 11.2393 11.82C10.8003 12.0024 10.3913 12.0934 10.0118 12.0934H10.0004H9.98917C9.60971 12.0934 9.20043 12.0024 8.76151 11.82C8.3226 11.6378 7.97098 11.4592 7.70684 11.2843C7.44278 11.1096 7.09862 10.8658 6.67456 10.5534C5.67004 9.81682 3.82112 8.53315 1.12771 6.70288C0.703496 6.42033 0.327753 6.09646 0.000366211 5.73193V14.5933C0.000366211 15.0846 0.175142 15.5048 0.524889 15.8545C0.874558 16.2044 1.29502 16.3792 1.78612 16.3792H18.2147C18.7057 16.3792 19.1261 16.2044 19.4758 15.8545C19.8257 15.5047 20.0004 15.0847 20.0004 14.5933V5.73193C19.6804 6.08891 19.3085 6.41278 18.8841 6.70288Z" fill="#171619"/>
</svg>
