<svg width="34" height="45" viewBox="0 0 34 45" fill="none" xmlns="http://www.w3.org/2000/svg">
<rect width="34" height="45" rx="6" fill="#FD473B"/>
<path d="M13.9844 28.8398H19.3691C20.2656 28.8398 20.8457 28.2949 20.8867 27.3926L21.2852 18.9492H21.9297C22.2227 18.9492 22.4512 18.7266 22.4512 18.4336C22.4512 18.1465 22.2227 17.9238 21.9297 17.9238H19.3223V17.0449C19.3223 16.1484 18.7539 15.6152 17.7812 15.6152H15.5547C14.5879 15.6152 14.0137 16.1484 14.0137 17.0449V17.9238H11.4121C11.1309 17.9238 10.8965 18.1465 10.8965 18.4336C10.8965 18.7266 11.1309 18.9492 11.4121 18.9492H12.0625L12.4609 27.3984C12.502 28.3008 13.0762 28.8398 13.9844 28.8398ZM15.0918 17.0977C15.0918 16.793 15.3027 16.5996 15.6309 16.5996H17.7051C18.0332 16.5996 18.2441 16.793 18.2441 17.0977V17.9238H15.0918V17.0977ZM14.0957 27.8027C13.7734 27.8027 13.5391 27.5684 13.5215 27.2227L13.123 18.9492H20.2012L19.8203 27.2227C19.8086 27.5684 19.5742 27.8027 19.2402 27.8027H14.0957ZM14.9453 26.8594C15.1914 26.8594 15.3496 26.7012 15.3438 26.4727L15.168 20.332C15.1621 20.0977 14.998 19.9453 14.7637 19.9453C14.5176 19.9453 14.3594 20.1035 14.3652 20.332L14.541 26.4727C14.5469 26.707 14.7109 26.8594 14.9453 26.8594ZM16.6738 26.8594C16.9199 26.8594 17.084 26.7012 17.084 26.4727V20.332C17.084 20.1035 16.9199 19.9453 16.6738 19.9453C16.4277 19.9453 16.2637 20.1035 16.2637 20.332V26.4727C16.2637 26.7012 16.4277 26.8594 16.6738 26.8594ZM18.4023 26.8594C18.6367 26.8594 18.7949 26.707 18.8008 26.4727L18.9824 20.332C18.9883 20.1035 18.8242 19.9453 18.584 19.9453C18.3496 19.9453 18.1855 20.0977 18.1797 20.332L17.998 26.4727C17.9922 26.7012 18.1562 26.8594 18.4023 26.8594Z" fill="white"/>
</svg>
