<svg width="24" height="20" viewBox="0 0 24 20" fill="none" xmlns="http://www.w3.org/2000/svg">
<path fill-rule="evenodd" clip-rule="evenodd" d="M6.51916 17.8805C5.83628 17.6975 5.33893 17.3483 5.02712 16.8328C4.7138 16.3229 4.64488 15.7405 4.82036 15.0856L8.41315 1.67711C8.58863 1.02222 8.93952 0.552312 9.46581 0.267384C9.99359 -0.0231404 10.5989 -0.0769143 11.2818 0.106063L17.5033 1.7731C18.1918 1.95758 18.6891 2.30682 18.9953 2.82081C19.3086 3.33071 19.3776 3.91311 19.2021 4.568L15.6093 17.9765C15.4338 18.6314 15.0829 19.1013 14.5566 19.3862C14.0344 19.6782 13.4291 19.732 12.7406 19.5475L6.51916 17.8805ZM12.9349 18.1508L7.05768 16.576C6.69945 16.48 6.44992 16.3142 6.30911 16.0784C6.16679 15.8483 6.14063 15.5654 6.23062 15.2295L9.70643 2.25762C9.79641 1.92177 9.96056 1.68979 10.1989 1.56167C10.4387 1.42795 10.7377 1.40908 11.0959 1.50507L12.1706 1.79303C12.305 1.82903 12.3549 1.9114 12.3204 2.04014L12.2686 2.23325C12.2221 2.40676 12.2371 2.56375 12.3134 2.70419C12.3913 2.83904 12.517 2.92971 12.6905 2.9762L14.8567 3.55663C15.0358 3.60462 15.19 3.58894 15.3192 3.50959C15.4556 3.42614 15.547 3.29765 15.5935 3.12413L15.6452 2.93102C15.6797 2.80229 15.7641 2.75591 15.8985 2.79191L16.9732 3.07987C17.3258 3.17436 17.5725 3.33946 17.7133 3.57516C17.8557 3.80527 17.8818 4.08825 17.7918 4.42409L14.316 17.396C14.226 17.7318 14.0619 17.9638 13.8236 18.0919C13.5838 18.2257 13.2876 18.2453 12.9349 18.1508ZM8.38056 16.2735C8.26862 16.2435 8.18321 16.1817 8.12434 16.0879C8.07108 15.9956 8.06019 15.8907 8.09169 15.7732C8.12318 15.6556 8.18506 15.5702 8.27733 15.517C8.37369 15.4708 8.47784 15.4627 8.58979 15.4927L12.1581 16.4488C12.2701 16.4788 12.3534 16.5372 12.4082 16.6238C12.4615 16.7161 12.4723 16.821 12.4408 16.9385C12.4093 17.0561 12.3475 17.1415 12.2552 17.1948C12.1629 17.248 12.0608 17.2597 11.9489 17.2297L8.38056 16.2735ZM3.33518 12.0294C3.23975 12.3856 2.8737 12.5969 2.51758 12.5015C2.16146 12.4061 1.95012 12.04 2.04554 11.6839L4.23407 3.5162C4.32949 3.16008 4.69554 2.94874 5.05166 3.04416C5.40778 3.13958 5.61912 3.50563 5.5237 3.86175L3.33518 12.0294ZM21.387 7.42121C21.0309 7.32579 20.6648 7.53712 20.5694 7.89325L18.3809 16.0609C18.2855 16.417 18.4968 16.7831 18.8529 16.8785C19.2091 16.9739 19.5751 16.7626 19.6705 16.4065L21.8591 8.2388C21.9545 7.88268 21.7431 7.51663 21.387 7.42121ZM1.31255 10.1053C1.21712 10.4615 0.851074 10.6728 0.494951 10.5774C0.138829 10.482 -0.0725104 10.1159 0.0229124 9.75979L1.38883 4.6621C1.48426 4.30598 1.85031 4.09464 2.20643 4.19006C2.56255 4.28548 2.77389 4.65153 2.67847 5.00766L1.31255 10.1053ZM23.5053 9.8319C23.1492 9.73647 22.7831 9.94781 22.6877 10.3039L21.3218 15.4016C21.2264 15.7577 21.4377 16.1238 21.7938 16.2192C22.15 16.3146 22.516 16.1033 22.6114 15.7472L23.9774 10.6495C24.0728 10.2934 23.8614 9.92732 23.5053 9.8319Z" fill="black"/>
</svg>
