<svg width="24" height="20" viewBox="0 0 24 20" fill="none" xmlns="http://www.w3.org/2000/svg">
<path fill-rule="evenodd" clip-rule="evenodd" d="M6.51902 17.8805C5.83614 17.6975 5.33879 17.3482 5.02698 16.8328C4.71366 16.3229 4.64474 15.7405 4.82022 15.0856L8.41302 1.67707C8.58849 1.02217 8.93938 0.552265 9.46567 0.267338C9.99346 -0.023187 10.5988 -0.076961 11.2817 0.106016L17.5031 1.77306C18.1916 1.95753 18.689 2.30677 18.9952 2.82077C19.3085 3.33066 19.3774 3.91306 19.2019 4.56795L15.6091 17.9764C15.4337 18.6313 15.0828 19.1013 14.5565 19.3862C14.0343 19.6782 13.429 19.732 12.7405 19.5475L6.51902 17.8805ZM12.9348 18.1507L7.05754 16.5759C6.69931 16.48 6.44979 16.3141 6.30897 16.0784C6.16665 15.8483 6.14049 15.5653 6.23048 15.2295L9.70629 2.25757C9.79628 1.92173 9.96042 1.68974 10.1987 1.56162C10.4385 1.4279 10.7375 1.40904 11.0958 1.50502L12.1705 1.79299C12.3048 1.82898 12.3547 1.91135 12.3202 2.04009L12.2685 2.2332C12.222 2.40672 12.2369 2.5637 12.3133 2.70414C12.3911 2.83899 12.5168 2.92966 12.6903 2.97615L14.8565 3.55658C15.0356 3.60457 15.1898 3.58889 15.3191 3.50954C15.4554 3.42609 15.5468 3.29761 15.5933 3.12409L15.6451 2.93098C15.6796 2.80224 15.764 2.75587 15.8983 2.79186L16.973 3.07983C17.3257 3.17431 17.5724 3.33941 17.7132 3.57512C17.8555 3.80523 17.8817 4.0882 17.7917 4.42405L14.3159 17.3959C14.2259 17.7318 14.0617 17.9638 13.8234 18.0919C13.5836 18.2256 13.2874 18.2452 12.9348 18.1507ZM8.38043 16.2735C8.26848 16.2435 8.18307 16.1816 8.12421 16.0879C8.07094 15.9956 8.06005 15.8907 8.09155 15.7731C8.12304 15.6556 8.18492 15.5702 8.27719 15.5169C8.37355 15.4707 8.4777 15.4627 8.58965 15.4927L12.158 16.4488C12.2699 16.4788 12.3533 16.5371 12.408 16.6238C12.4613 16.716 12.4722 16.8209 12.4407 16.9385C12.4092 17.056 12.3473 17.1414 12.2551 17.1947C12.1628 17.248 12.0607 17.2596 11.9487 17.2296L8.38043 16.2735ZM3.33504 12.0294C3.23962 12.3855 2.87357 12.5969 2.51744 12.5014C2.16132 12.406 1.94998 12.04 2.0454 11.6838L4.23393 3.51615C4.32935 3.16003 4.6954 2.94869 5.05152 3.04411C5.40765 3.13954 5.61899 3.50559 5.52356 3.86171L3.33504 12.0294ZM21.3869 7.42116C21.0308 7.32574 20.6647 7.53708 20.5693 7.8932L18.3808 16.0609C18.2853 16.417 18.4967 16.7831 18.8528 16.8785C19.2089 16.9739 19.575 16.7626 19.6704 16.4064L21.8589 8.23876C21.9543 7.88263 21.743 7.51658 21.3869 7.42116ZM1.31241 10.1053C1.21699 10.4614 0.850935 10.6728 0.494813 10.5773C0.13869 10.4819 -0.0726489 10.1159 0.0227739 9.75974L1.3887 4.66205C1.48412 4.30593 1.85017 4.09459 2.20629 4.19002C2.56241 4.28544 2.77375 4.65149 2.67833 5.00761L1.31241 10.1053ZM23.5052 9.83185C23.1491 9.73643 22.783 9.94777 22.6876 10.3039L21.3217 15.4016C21.2262 15.7577 21.4376 16.1237 21.7937 16.2192C22.1498 16.3146 22.5159 16.1033 22.6113 15.7471L23.9772 10.6494C24.0726 10.2933 23.8613 9.92727 23.5052 9.83185Z" fill="white"/>
</svg>
