<svg width="60" height="86" viewBox="0 0 60 86" fill="none" xmlns="http://www.w3.org/2000/svg">
<rect y="6" width="60" height="80" rx="10" fill="#FD473B"/>
<path d="M26.3125 54.4531H33.4922C34.6875 54.4531 35.4609 53.7266 35.5156 52.5234L36.0469 41.2656H36.9062C37.2969 41.2656 37.6016 40.9688 37.6016 40.5781C37.6016 40.1953 37.2969 39.8984 36.9062 39.8984H33.4297V38.7266C33.4297 37.5312 32.6719 36.8203 31.375 36.8203H28.4062C27.1172 36.8203 26.3516 37.5312 26.3516 38.7266V39.8984H22.8828C22.5078 39.8984 22.1953 40.1953 22.1953 40.5781C22.1953 40.9688 22.5078 41.2656 22.8828 41.2656H23.75L24.2812 52.5312C24.3359 53.7344 25.1016 54.4531 26.3125 54.4531ZM27.7891 38.7969C27.7891 38.3906 28.0703 38.1328 28.5078 38.1328H31.2734C31.7109 38.1328 31.9922 38.3906 31.9922 38.7969V39.8984H27.7891V38.7969ZM26.4609 53.0703C26.0312 53.0703 25.7188 52.7578 25.6953 52.2969L25.1641 41.2656H34.6016L34.0938 52.2969C34.0781 52.7578 33.7656 53.0703 33.3203 53.0703H26.4609ZM27.5938 51.8125C27.9219 51.8125 28.1328 51.6016 28.125 51.2969L27.8906 43.1094C27.8828 42.7969 27.6641 42.5938 27.3516 42.5938C27.0234 42.5938 26.8125 42.8047 26.8203 43.1094L27.0547 51.2969C27.0625 51.6094 27.2812 51.8125 27.5938 51.8125ZM29.8984 51.8125C30.2266 51.8125 30.4453 51.6016 30.4453 51.2969V43.1094C30.4453 42.8047 30.2266 42.5938 29.8984 42.5938C29.5703 42.5938 29.3516 42.8047 29.3516 43.1094V51.2969C29.3516 51.6016 29.5703 51.8125 29.8984 51.8125ZM32.2031 51.8125C32.5156 51.8125 32.7266 51.6094 32.7344 51.2969L32.9766 43.1094C32.9844 42.8047 32.7656 42.5938 32.4453 42.5938C32.1328 42.5938 31.9141 42.7969 31.9062 43.1094L31.6641 51.2969C31.6562 51.6016 31.875 51.8125 32.2031 51.8125Z" fill="white"/>
</svg>
