<svg width="10" height="12" viewBox="0 0 10 12" fill="none" xmlns="http://www.w3.org/2000/svg">
<path d="M4.94727 0.240723C4.53711 0.240723 4.25146 0.526367 4.25146 0.951172V7.83594L4.30273 9.07373L2.7207 7.29395L1.62939 6.22461C1.50488 6.09277 1.3291 6.01953 1.13135 6.01953C0.750488 6.01953 0.464844 6.30518 0.464844 6.69336C0.464844 6.88379 0.538086 7.05225 0.68457 7.20605L4.42725 10.9634C4.57373 11.1099 4.75684 11.1904 4.94727 11.1904C5.14502 11.1904 5.32812 11.1099 5.47461 10.9634L9.21729 7.20605C9.37109 7.05225 9.43701 6.88379 9.43701 6.69336C9.43701 6.30518 9.15137 6.01953 8.77051 6.01953C8.57275 6.01953 8.39697 6.09277 8.27246 6.22461L7.18115 7.29395L5.59912 9.06641L5.65039 7.83594V0.951172C5.65039 0.526367 5.36475 0.240723 4.94727 0.240723Z" fill="#171619"/>
</svg>
