<svg width="40" height="40" viewBox="0 0 40 40" fill="none" xmlns="http://www.w3.org/2000/svg">
<circle cx="20.0001" cy="20" r="20" fill="white"/>
<path fill-rule="evenodd" clip-rule="evenodd" d="M10.0001 19C10.0001 15.2503 10.0001 13.3754 10.955 12.0611C11.2634 11.6366 11.6367 11.2633 12.0612 10.9549C13.3755 10 15.2504 10 19.0001 10H21.0001C24.7499 10 26.6247 10 27.939 10.9549C28.3635 11.2633 28.7368 11.6366 29.0452 12.0611C30.0001 13.3754 30.0001 15.2503 30.0001 19V21C30.0001 24.7497 30.0001 26.6246 29.0452 27.9389C28.7368 28.3634 28.3635 28.7367 27.939 29.0451C26.6247 30 24.7499 30 21.0001 30H19.0001C15.2504 30 13.3755 30 12.0612 29.0451C11.6367 28.7367 11.2634 28.3634 10.955 27.9389C10.0001 26.6246 10.0001 24.7497 10.0001 21V19ZM20.0002 14.7056C17.0765 14.7056 14.7061 17.076 14.7061 19.9997C14.7061 22.9234 17.0765 25.2938 20.0002 25.2938C22.9239 25.2938 25.2943 22.9234 25.2943 19.9997C25.2943 17.076 22.9239 14.7056 20.0002 14.7056ZM20.0002 23.3085C18.1764 23.3085 16.6914 21.8235 16.6914 19.9997C16.6914 18.1746 18.1764 16.6909 20.0002 16.6909C21.824 16.6909 23.309 18.1746 23.309 19.9997C23.309 21.8235 21.824 23.3085 20.0002 23.3085ZM26.6668 14.1658C26.6668 14.626 26.2937 14.9991 25.8335 14.9991C25.3732 14.9991 25.0001 14.626 25.0001 14.1658C25.0001 13.7056 25.3732 13.3325 25.8335 13.3325C26.2937 13.3325 26.6668 13.7056 26.6668 14.1658Z" fill="#171619"/>
</svg>
