<svg width="29" height="29" viewBox="0 0 29 29" fill="none" xmlns="http://www.w3.org/2000/svg">
<g opacity="0.7">
<path fill-rule="evenodd" clip-rule="evenodd" d="M29 14.5C29 22.5084 22.5078 29 14.5004 29C6.49224 29 0 22.5084 0 14.5C0 6.49163 6.49224 0 14.5004 0C22.5078 0 29 6.49163 29 14.5" fill="white"/>
<path fill-rule="evenodd" clip-rule="evenodd" d="M16.028 14.5002L20.6834 9.8456C21.1055 9.4234 21.1055 8.73885 20.6834 8.31665C20.2612 7.89445 19.5766 7.89445 19.1553 8.31665L14.5 12.9721L9.84467 8.31665C9.42249 7.89445 8.73882 7.89445 8.31664 8.31665C7.89445 8.73885 7.89445 9.4234 8.31664 9.8456L12.972 14.5002L8.31664 19.1557C7.89445 19.5779 7.89445 20.2616 8.31664 20.6838C8.52773 20.8949 8.80484 21 9.08109 21C9.35733 21 9.63358 20.8949 9.84467 20.6838L14.5 16.0283L19.1553 20.6838C19.3664 20.8949 19.6427 21 19.9189 21C20.1952 21 20.4723 20.8949 20.6834 20.6838C21.1055 20.2616 21.1055 19.5779 20.6834 19.1557L16.028 14.5002Z" fill="#171619"/>
</g>
</svg>
