<svg width="40" height="40" viewBox="0 0 40 40" fill="none" xmlns="http://www.w3.org/2000/svg">
<circle cx="20.0001" cy="20" r="20" fill="white"/>
<path fill-rule="evenodd" clip-rule="evenodd" d="M14.5869 16.4175C13.1258 17.1108 11.6245 17.8231 10.2518 18.6448C9.53495 19.2151 10.4876 19.6186 11.3814 19.997C11.5235 20.0572 11.6641 20.1167 11.7963 20.1761C11.9063 20.2129 12.0181 20.2516 12.1315 20.2908C13.1255 20.635 14.2339 21.0187 15.199 20.4415C16.7843 19.4518 18.2804 18.3077 19.7753 17.1645C20.2651 16.7899 20.7548 16.4154 21.2474 16.0465C21.2705 16.0305 21.2965 16.0121 21.325 15.9921C21.7446 15.6964 22.6885 15.0316 22.3394 15.9477C21.5138 16.9288 20.6295 17.7973 19.7405 18.6706C19.1412 19.2591 18.5398 19.8497 17.9527 20.4785C17.4415 20.9299 16.9105 21.8378 17.483 22.47C18.8018 23.4732 20.1411 24.4521 21.4796 25.4304C21.9152 25.7487 22.3507 26.0671 22.7854 26.3862C23.5221 27.0253 24.6734 26.5083 24.8354 25.5095C24.9074 25.0501 24.9797 24.5907 25.052 24.1312C25.4517 21.5921 25.8515 19.0521 26.2046 16.5047C26.2526 16.1051 26.307 15.7055 26.3615 15.3058C26.4934 14.3369 26.6255 13.3668 26.6668 12.3927C26.5604 11.4205 25.4758 11.6343 24.8722 11.8529C21.7696 13.1358 18.698 14.5139 15.6385 15.9162C15.2919 16.083 14.9406 16.2497 14.5869 16.4175Z" fill="#171619"/>
</svg>
