<svg width="12" height="10" viewBox="0 0 12 10" fill="none" xmlns="http://www.w3.org/2000/svg">
<path d="M11.3267 4.70459C11.3267 4.51416 11.2388 4.32373 11.0923 4.18457L7.34229 0.43457C7.18115 0.288086 7.0127 0.214844 6.83691 0.214844C6.44141 0.214844 6.14844 0.500488 6.14844 0.888672C6.14844 1.08643 6.229 1.25488 6.35352 1.38672L7.43018 2.47803L9.20996 4.09668L7.85498 4.00879H1.17529C0.750488 4.00879 0.464844 4.29443 0.464844 4.70459C0.464844 5.11475 0.750488 5.40771 1.17529 5.40771H7.85498L9.21729 5.3125L7.43018 6.93848L6.35352 8.02246C6.229 8.1543 6.14844 8.32275 6.14844 8.52051C6.14844 8.90869 6.44141 9.19434 6.83691 9.19434C7.0127 9.19434 7.18115 9.12109 7.33496 8.97461L11.0923 5.22461C11.2388 5.08545 11.3267 4.89502 11.3267 4.70459Z" fill="#171619"/>
</svg>
