<svg width="16" height="15" viewBox="0 0 16 15" fill="none" xmlns="http://www.w3.org/2000/svg">
<path opacity="0.4" d="M2.49365 14.6333C1.24854 14.6333 0.494141 13.769 0.494141 12.6484C0.494141 12.3042 0.582031 11.9526 0.779785 11.623L6.46338 1.7207C6.83691 1.0542 7.49609 0.717285 8.16992 0.717285C8.84375 0.717285 9.49561 1.0542 9.87646 1.7207L15.5601 11.623C15.7432 11.9453 15.8457 12.3042 15.8457 12.6484C15.8457 13.769 15.0913 14.6333 13.8462 14.6333H2.49365ZM8.17725 9.74072C8.53613 9.74072 8.74854 9.52832 8.75586 9.13281L8.86572 5.15576C8.87305 4.76758 8.56543 4.48193 8.16992 4.48193C7.75977 4.48193 7.47412 4.76025 7.48145 5.14844L7.57666 9.13281C7.58398 9.521 7.79639 9.74072 8.17725 9.74072ZM8.17725 12.1943C8.60938 12.1943 8.99023 11.8501 8.99023 11.4106C8.99023 10.9639 8.6167 10.6196 8.17725 10.6196C7.73047 10.6196 7.35693 10.9712 7.35693 11.4106C7.35693 11.8428 7.73779 12.1943 8.17725 12.1943Z" fill="#171619"/>
</svg>
