<svg width="20" height="20" viewBox="0 0 20 20" fill="none" xmlns="http://www.w3.org/2000/svg">
<path fill-rule="evenodd" clip-rule="evenodd" d="M0 9C0 5.25027 0 3.3754 0.954915 2.06107C1.26331 1.6366 1.6366 1.26331 2.06107 0.954915C3.3754 0 5.25027 0 9 0H11C14.7497 0 16.6246 0 17.9389 0.954915C18.3634 1.26331 18.7367 1.6366 19.0451 2.06107C20 3.3754 20 5.25027 20 9V11C20 14.7497 20 16.6246 19.0451 17.9389C18.7367 18.3634 18.3634 18.7367 17.9389 19.0451C16.6246 20 14.7497 20 11 20H9C5.25027 20 3.3754 20 2.06107 19.0451C1.6366 18.7367 1.26331 18.3634 0.954915 17.9389C0 16.6246 0 14.7497 0 11V9ZM10.0001 4.7056C7.0764 4.7056 4.70596 7.07604 4.70596 9.99972C4.70596 12.9234 7.0764 15.2938 10.0001 15.2938C12.9238 15.2938 15.2942 12.9234 15.2942 9.99972C15.2942 7.07604 12.9238 4.7056 10.0001 4.7056ZM10.0001 13.3085C8.17625 13.3085 6.69125 11.8235 6.69125 9.99972C6.69125 8.17457 8.17625 6.6909 10.0001 6.6909C11.8239 6.6909 13.3089 8.17457 13.3089 9.99972C13.3089 11.8235 11.8239 13.3085 10.0001 13.3085ZM16.6667 4.16579C16.6667 4.62603 16.2936 4.99913 15.8333 4.99913C15.3731 4.99913 15 4.62603 15 4.16579C15 3.70556 15.3731 3.33246 15.8333 3.33246C16.2936 3.33246 16.6667 3.70556 16.6667 4.16579Z" fill="white"/>
</svg>
