<svg width="20" height="20" viewBox="0 0 20 20" fill="none" xmlns="http://www.w3.org/2000/svg">
<path fill-rule="evenodd" clip-rule="evenodd" d="M0.00012207 9C0.00012207 5.25027 0.00012207 3.3754 0.955037 2.06107C1.26344 1.6366 1.63672 1.26331 2.0612 0.954915C3.37552 0 5.25039 0 9.00012 0H11.0001C14.7499 0 16.6247 0 17.939 0.954915C18.3635 1.26331 18.7368 1.6366 19.0452 2.06107C20.0001 3.3754 20.0001 5.25027 20.0001 9V11C20.0001 14.7497 20.0001 16.6246 19.0452 17.9389C18.7368 18.3634 18.3635 18.7367 17.939 19.0451C16.6247 20 14.7499 20 11.0001 20H9.00012C5.25039 20 3.37552 20 2.0612 19.0451C1.63672 18.7367 1.26344 18.3634 0.955037 17.9389C0.00012207 16.6246 0.00012207 14.7497 0.00012207 11V9ZM10.0002 4.7056C7.07652 4.7056 4.70608 7.07604 4.70608 9.99972C4.70608 12.9234 7.07652 15.2938 10.0002 15.2938C12.9239 15.2938 15.2943 12.9234 15.2943 9.99972C15.2943 7.07604 12.9239 4.7056 10.0002 4.7056ZM10.0002 13.3085C8.17638 13.3085 6.69138 11.8235 6.69138 9.99972C6.69138 8.17457 8.17638 6.6909 10.0002 6.6909C11.824 6.6909 13.309 8.17457 13.309 9.99972C13.309 11.8235 11.824 13.3085 10.0002 13.3085ZM16.6668 4.16579C16.6668 4.62603 16.2937 4.99913 15.8335 4.99913C15.3732 4.99913 15.0001 4.62603 15.0001 4.16579C15.0001 3.70556 15.3732 3.33246 15.8335 3.33246C16.2937 3.33246 16.6668 3.70556 16.6668 4.16579Z" fill="#171619"/>
</svg>
