<svg width="135" height="128" viewBox="0 0 135 128" fill="none" xmlns="http://www.w3.org/2000/svg">
<path d="M84 79C84 35.3695 48.6305 2.70562e-06 5 2.78181e-07C3.32058 1.84745e-07 1.6534 0.0524045 -8.66075e-09 0.155667L5.07952e-07 128L66.9718 128C77.6339 114.534 84 97.5102 84 79Z" fill="#9FEEFF"/>
<path d="M106.173 77.7553C101.515 77.7553 99.6759 76.4054 99.6759 73.1122L99.6759 65.4725L97.1689 65.4725L97.1689 61.0816L99.6759 61.0816L99.6759 57.4175L105.758 57.4175L105.758 61.0816L109.007 61.0816L109.007 65.4725L105.758 65.4725L105.758 71.7623C105.758 72.8155 106.366 73.3644 107.642 73.3644C108.295 73.3644 108.651 73.3347 109.007 73.2902L109.007 77.5328C108.428 77.6515 107.33 77.7553 106.173 77.7553Z" fill="#171619"/>
<path d="M79.29 77.7556L79.29 54.9404L85.3721 54.9404L85.3721 63.7223L85.6688 63.7223C86.3512 61.8829 88.0719 60.6665 90.3861 60.6665C94.065 60.6665 95.9638 62.9806 95.9638 66.9859L95.9638 77.7556L89.8817 77.7556L89.8817 68.3358C89.8817 66.6002 89.1845 65.5618 87.6418 65.5618C86.188 65.5618 85.3721 66.7189 85.3721 68.3358L85.3721 77.7556L79.29 77.7556Z" fill="#171619"/>
<path d="M67.6267 83.6001C62.4495 83.6001 59.6607 81.5529 59.3343 78.6306L59.3195 78.4971L65.2087 78.4971L65.2384 78.6009C65.4312 79.2685 66.2471 79.7135 67.8195 79.7135C69.57 79.7135 70.5639 78.9124 70.5639 77.4587L70.5639 74.6105L70.2672 74.6105C69.481 76.3016 67.8344 77.162 65.4905 77.162C61.4259 77.162 58.9189 74.0319 58.9189 69.2108L58.9189 69.1811C58.9189 64.0485 61.3963 60.8442 65.5796 60.8442C67.8195 60.8442 69.57 61.9123 70.3414 63.7814L70.5639 63.7814L70.5639 61.0816L76.6459 61.0816L76.6459 76.9691C76.6459 81.0634 73.1599 83.6001 67.6267 83.6001ZM67.864 72.8007C69.5848 72.8007 70.5935 71.3914 70.5935 69.196L70.5935 69.1663C70.5935 66.9708 69.57 65.5764 67.864 65.5764C66.1729 65.5764 65.1494 66.9708 65.1494 69.1515L65.1494 69.1811C65.1494 71.3766 66.1581 72.8007 67.864 72.8007Z" fill="#171619"/>
<path d="M54.2869 59.1532C52.5958 59.1532 51.1865 57.8181 51.1865 56.127C51.1865 54.421 52.5958 53.0859 54.2869 53.0859C55.9928 53.0859 57.3873 54.421 57.3873 56.127C57.3873 57.8181 55.9928 59.1532 54.2869 59.1532ZM51.2459 77.7554L51.2459 61.0816L57.3279 61.0816L57.3279 77.7554L51.2459 77.7554Z" fill="#171619"/>
<path d="M30.8164 77.755L30.8164 56.3491L40.4587 56.3491C46.0809 56.3491 48.9588 59.0341 48.9588 63.6179L48.9588 63.6476C48.9588 66.1546 47.7275 68.5726 45.5172 69.6407L49.5818 77.755L42.5503 77.755L39.1681 70.5752L37.1062 70.5752L37.1062 77.755L30.8164 77.755ZM37.1062 66.4216L39.7318 66.4216C41.4526 66.4216 42.5503 65.3387 42.5503 63.7218L42.5503 63.6921C42.5503 62.1197 41.4526 60.9923 39.7318 60.9923L37.1062 60.9923L37.1062 66.4216Z" fill="#171619"/>
<path d="M127.45 51.919C122.48 51.919 119.469 48.6702 119.469 43.4337L119.469 43.4189C119.469 38.2269 122.51 34.8892 127.272 34.8892C132.033 34.8892 135 38.1527 135 43.0925L135 44.4425L123.756 44.4425C123.8 47.1275 125.239 48.6851 127.539 48.6851C129.437 48.6851 130.491 47.6763 130.787 47.0533L130.832 46.9643L134.867 46.9643L134.837 47.1126C134.333 49.1598 132.226 51.919 127.45 51.919ZM127.346 38.1379C125.462 38.1379 124.067 39.4136 123.8 41.7278L130.847 41.7278C130.58 39.3543 129.23 38.1379 127.346 38.1379Z" fill="#171619"/>
<path d="M110.935 51.919C106.5 51.919 103.978 49.9312 103.666 47.1275L103.651 47.0681L107.909 47.0681L107.938 47.1275C108.28 48.1362 109.274 48.8631 110.98 48.8631C112.641 48.8631 113.768 48.151 113.768 47.0681L113.768 47.0385C113.768 46.1632 113.116 45.6144 111.454 45.2435L108.725 44.665C105.609 43.9974 104.067 42.4695 104.067 40.0218L104.067 40.007C104.067 36.9363 106.796 34.8892 110.876 34.8892C115.163 34.8892 117.536 37.0253 117.714 39.651L117.714 39.7103L113.694 39.7103L113.679 39.6361C113.442 38.7609 112.478 37.945 110.861 37.945C109.363 37.945 108.295 38.6422 108.295 39.74L108.295 39.7548C108.295 40.63 108.903 41.1344 110.594 41.5053L113.309 42.0838C116.572 42.781 118.1 44.1458 118.1 46.5638L118.1 46.5786C118.1 49.8125 115.118 51.919 110.935 51.919Z" fill="#171619"/>
<path d="M94.2279 51.919C89.199 51.919 86.1729 48.7296 86.1729 43.4189L86.1729 43.3892C86.1729 38.123 89.2436 34.8892 94.2279 34.8892C99.2122 34.8892 102.283 38.1082 102.283 43.3892L102.283 43.4189C102.283 48.7444 99.2567 51.919 94.2279 51.919ZM94.2279 48.5219C96.5272 48.5219 97.8475 46.6379 97.8475 43.4189L97.8475 43.3892C97.8475 40.1998 96.5124 38.2862 94.2279 38.2862C91.9286 38.2862 90.6083 40.1998 90.6083 43.3892L90.6083 43.4189C90.6083 46.6379 91.9137 48.5219 94.2279 48.5219Z" fill="#171619"/>
<path d="M76.765 51.919C71.7362 51.919 68.71 48.7296 68.71 43.4189L68.71 43.3892C68.71 38.123 71.7807 34.8892 76.765 34.8892C81.7493 34.8892 84.82 38.1082 84.82 43.3892L84.82 43.4189C84.82 48.7444 81.7938 51.919 76.765 51.919ZM76.765 48.5219C79.0643 48.5219 80.3846 46.6379 80.3846 43.4189L80.3846 43.3892C80.3846 40.1998 79.0495 38.2862 76.765 38.2862C74.4657 38.2862 73.1454 40.1998 73.1454 43.3892L73.1454 43.4189C73.1454 46.6379 74.4508 48.5219 76.765 48.5219Z" fill="#171619"/>
<path d="M51.8096 51.5778L51.8096 29L56.1412 29L56.1412 37.7671L56.4082 37.7671C57.1499 36.0018 58.7669 34.8892 61.0958 34.8892C64.7303 34.8892 66.6884 37.1144 66.6884 41.0158L66.6884 51.5778L62.3568 51.5778L62.3568 41.9949C62.3568 39.6955 61.4074 38.4791 59.3602 38.4791C57.3576 38.4791 56.1412 39.9181 56.1412 42.1284L56.1412 51.5778L51.8096 51.5778Z" fill="#171619"/>
<path d="M40.0428 52.1267C33.8421 52.1267 30 47.8248 30 40.8823L30 40.8526C30 33.9102 33.8273 29.623 40.0428 29.623C45.1162 29.623 48.9137 32.8569 49.3291 37.3814L49.3291 37.5594L44.9678 37.5594L44.9678 37.4556C44.508 35.0524 42.5943 33.4206 40.0428 33.4206C36.6754 33.4206 34.5838 36.254 34.5838 40.8526L34.5838 40.8823C34.5838 45.4809 36.6754 48.3291 40.0577 48.3291C42.624 48.3291 44.4783 46.8309 44.953 44.5464L44.9827 44.4277L49.3439 44.4277L49.3291 44.5909C48.8692 49.0708 45.2052 52.1267 40.0428 52.1267Z" fill="#171619"/>
<mask id="mask0_2761_5780" style="mask-type:alpha" maskUnits="userSpaceOnUse" x="0" y="0" width="84" height="128">
<path d="M84 79C84 35.3695 48.6305 2.70562e-06 5 2.78181e-07C3.32058 1.84745e-07 1.6534 0.0524045 -8.66075e-09 0.155667L5.07952e-07 128L66.9718 128C77.6339 114.534 84 97.5102 84 79Z" fill="#9FEEFF"/>
</mask>
<g mask="url(#mask0_2761_5780)">
<path d="M79.29 77.7556L79.29 54.9404L85.3721 54.9404L85.3721 63.7223L85.6688 63.7223C86.3512 61.8829 88.0719 60.6665 90.3861 60.6665C94.065 60.6665 95.9638 62.9806 95.9638 66.9859L95.9638 77.7556L89.8817 77.7556L89.8817 68.3358C89.8817 66.6002 89.1845 65.5618 87.6418 65.5618C86.188 65.5618 85.3721 66.7189 85.3721 68.3358L85.3721 77.7556L79.29 77.7556Z" fill="white"/>
<path d="M67.6267 83.6001C62.4495 83.6001 59.6607 81.5529 59.3343 78.6306L59.3195 78.4971L65.2087 78.4971L65.2384 78.6009C65.4312 79.2685 66.2471 79.7135 67.8195 79.7135C69.57 79.7135 70.5639 78.9124 70.5639 77.4587L70.5639 74.6105L70.2672 74.6105C69.481 76.3016 67.8344 77.162 65.4905 77.162C61.4259 77.162 58.9189 74.0319 58.9189 69.2108L58.9189 69.1811C58.9189 64.0485 61.3963 60.8442 65.5796 60.8442C67.8195 60.8442 69.57 61.9123 70.3414 63.7814L70.5639 63.7814L70.5639 61.0816L76.6459 61.0816L76.6459 76.9691C76.6459 81.0634 73.1599 83.6001 67.6267 83.6001ZM67.864 72.8007C69.5848 72.8007 70.5935 71.3914 70.5935 69.196L70.5935 69.1663C70.5935 66.9708 69.57 65.5764 67.864 65.5764C66.1729 65.5764 65.1494 66.9708 65.1494 69.1515L65.1494 69.1811C65.1494 71.3766 66.1581 72.8007 67.864 72.8007Z" fill="white"/>
<path d="M54.2869 59.1532C52.5958 59.1532 51.1865 57.8181 51.1865 56.127C51.1865 54.421 52.5958 53.0859 54.2869 53.0859C55.9928 53.0859 57.3873 54.421 57.3873 56.127C57.3873 57.8181 55.9928 59.1532 54.2869 59.1532ZM51.2459 77.7554L51.2459 61.0816L57.3279 61.0816L57.3279 77.7554L51.2459 77.7554Z" fill="white"/>
<path d="M30.8164 77.755L30.8164 56.3491L40.4587 56.3491C46.0809 56.3491 48.9588 59.0341 48.9588 63.6179L48.9588 63.6476C48.9588 66.1546 47.7275 68.5726 45.5172 69.6407L49.5818 77.755L42.5503 77.755L39.1681 70.5752L37.1062 70.5752L37.1062 77.755L30.8164 77.755ZM37.1062 66.4216L39.7318 66.4216C41.4526 66.4216 42.5503 65.3387 42.5503 63.7218L42.5503 63.6921C42.5503 62.1197 41.4526 60.9923 39.7318 60.9923L37.1062 60.9923L37.1062 66.4216Z" fill="white"/>
<path d="M76.765 51.919C71.7362 51.919 68.71 48.7296 68.71 43.4189L68.71 43.3892C68.71 38.123 71.7807 34.8892 76.765 34.8892C81.7493 34.8892 84.82 38.1082 84.82 43.3892L84.82 43.4189C84.82 48.7444 81.7938 51.919 76.765 51.919ZM76.765 48.5219C79.0643 48.5219 80.3846 46.6379 80.3846 43.4189L80.3846 43.3892C80.3846 40.1998 79.0495 38.2862 76.765 38.2862C74.4657 38.2862 73.1454 40.1998 73.1454 43.3892L73.1454 43.4189C73.1454 46.6379 74.4508 48.5219 76.765 48.5219Z" fill="white"/>
<path d="M51.8096 51.5778L51.8096 29L56.1412 29L56.1412 37.7671L56.4082 37.7671C57.1499 36.0018 58.7669 34.8892 61.0958 34.8892C64.7303 34.8892 66.6884 37.1144 66.6884 41.0158L66.6884 51.5778L62.3568 51.5778L62.3568 41.9949C62.3568 39.6955 61.4074 38.4791 59.3602 38.4791C57.3576 38.4791 56.1412 39.9181 56.1412 42.1284L56.1412 51.5778L51.8096 51.5778Z" fill="white"/>
<path d="M40.0428 52.1267C33.8421 52.1267 30 47.8248 30 40.8823L30 40.8526C30 33.9102 33.8273 29.623 40.0428 29.623C45.1162 29.623 48.9137 32.8569 49.3291 37.3814L49.3291 37.5594L44.9678 37.5594L44.9678 37.4556C44.508 35.0524 42.5943 33.4206 40.0428 33.4206C36.6754 33.4206 34.5838 36.254 34.5838 40.8526L34.5838 40.8823C34.5838 45.4809 36.6754 48.3291 40.0577 48.3291C42.624 48.3291 44.4783 46.8309 44.953 44.5464L44.9827 44.4277L49.3439 44.4277L49.3291 44.5909C48.8692 49.0708 45.2052 52.1267 40.0428 52.1267Z" fill="white"/>
</g>
<g clip-path="url(#clip0_2761_5780)">
<path d="M100.789 90.0001L35.2149 90.0001C34.9759 90.0001 34.7398 90.0001 34.5014 90.0014C34.3018 90.0027 34.1038 90.0065 33.9024 90.0096C33.4647 90.0148 33.028 90.0532 32.5962 90.1245C32.165 90.1974 31.7472 90.3348 31.3571 90.5321C30.9675 90.731 30.6115 90.9895 30.3021 91.2982C29.991 91.606 29.7316 91.9618 29.5341 92.3519C29.336 92.7412 29.1986 93.1584 29.1267 93.589C29.0541 94.0192 29.0151 94.4542 29.0099 94.8903C29.0038 95.0896 29.0032 95.2896 29 95.4889L29 110.513C29.0032 110.715 29.0038 110.911 29.0099 111.112C29.0151 111.549 29.0541 111.984 29.1267 112.414C29.1984 112.845 29.3358 113.262 29.5341 113.651C29.7316 114.04 29.9909 114.395 30.3021 114.701C30.6104 115.011 30.9666 115.269 31.3571 115.467C31.7472 115.665 32.1649 115.803 32.5962 115.877C33.0281 115.948 33.4647 115.986 33.9024 115.992C34.1038 115.996 34.3018 115.999 34.5014 115.999C34.7398 116 34.9759 116 35.2149 116L100.789 116C101.023 116 101.261 116 101.495 115.999C101.694 115.999 101.897 115.996 102.096 115.992C102.533 115.986 102.969 115.948 103.4 115.877C103.832 115.802 104.252 115.664 104.644 115.467C105.034 115.269 105.39 115.011 105.698 114.701C106.008 114.393 106.268 114.039 106.468 113.651C106.665 113.262 106.801 112.844 106.871 112.414C106.944 111.983 106.985 111.549 106.992 111.112C106.995 110.911 106.995 110.715 106.995 110.513C107 110.277 107 110.042 107 109.802L107 96.1986C107 95.9605 107 95.7244 106.995 95.4889C106.995 95.2896 106.995 95.0896 106.992 94.8903C106.985 94.4542 106.944 94.0192 106.871 93.589C106.801 93.1586 106.664 92.7415 106.468 92.3519C106.065 91.57 105.427 90.9335 104.644 90.532C104.252 90.3352 103.832 90.1978 103.4 90.1244C102.969 90.0528 102.533 90.0144 102.096 90.0096C101.897 90.0064 101.694 90.0026 101.495 90.0013C101.261 90 101.023 90.0001 100.789 90.0001Z" fill="#A6A6A6"/>
<path d="M34.5048 115.431C34.3062 115.431 34.1124 115.429 33.9154 115.424C33.5072 115.419 33.1 115.384 32.697 115.318C32.3213 115.254 31.9574 115.134 31.6171 114.962C31.28 114.792 30.9726 114.569 30.7065 114.301C30.4366 114.037 30.2119 113.73 30.0413 113.394C29.8689 113.055 29.7495 112.692 29.6874 112.317C29.6203 111.914 29.5841 111.506 29.5789 111.098C29.5747 110.961 29.5693 110.504 29.5693 110.504L29.5693 95.4889C29.5693 95.4889 29.5751 95.0395 29.5789 94.9075C29.5839 94.4997 29.62 94.0929 29.6868 93.6906C29.749 93.3146 29.8685 92.9503 30.041 92.6103C30.211 92.2738 30.4345 91.9669 30.7027 91.7016C30.9707 91.4338 31.2792 91.2095 31.6168 91.037C31.9563 90.866 32.3195 90.7468 32.6945 90.6834C33.0988 90.6175 33.5074 90.5818 33.917 90.5768L34.5052 90.5688L101.492 90.5689L102.087 90.5771C102.493 90.5819 102.898 90.6172 103.299 90.6828C103.678 90.7469 104.045 90.867 104.388 91.0389C105.064 91.3865 105.615 91.9366 105.962 92.6118C106.132 92.9495 106.249 93.3109 106.311 93.6836C106.379 94.0892 106.416 94.4992 106.424 94.9103C106.426 95.0944 106.426 95.2921 106.426 95.4889C106.431 95.7327 106.431 95.9647 106.431 96.1986L106.431 109.802C106.431 110.038 106.431 110.269 106.426 110.501C106.426 110.712 106.426 110.906 106.424 111.105C106.416 111.509 106.379 111.912 106.312 112.31C106.251 112.688 106.133 113.054 105.96 113.396C105.788 113.729 105.565 114.033 105.298 114.296C105.032 114.565 104.724 114.79 104.386 114.961C104.044 115.134 103.677 115.254 103.299 115.318C102.896 115.384 102.489 115.419 102.08 115.424C101.889 115.429 101.69 115.431 101.495 115.431L100.789 115.433L34.5048 115.431Z" fill="black"/>
<path d="M45.1423 103.195C45.1493 102.652 45.2938 102.121 45.5624 101.649C45.831 101.177 46.2149 100.78 46.6784 100.496C46.3839 100.077 45.9955 99.7317 45.5439 99.4883C45.0923 99.2448 44.59 99.1097 44.0769 99.0937C42.9823 98.9791 41.9211 99.7468 41.3634 99.7468C40.7948 99.7468 39.936 99.1051 39.0113 99.124C38.4131 99.1433 37.8301 99.3168 37.3192 99.6275C36.8082 99.9382 36.3867 100.376 36.0957 100.897C34.8351 103.074 35.7754 106.272 36.983 108.032C37.5871 108.893 38.2932 109.855 39.2172 109.821C40.1213 109.784 40.459 109.246 41.5503 109.246C42.6315 109.246 42.9483 109.821 43.891 109.8C44.8612 109.784 45.4724 108.934 46.0554 108.065C46.4895 107.451 46.8236 106.772 47.0452 106.054C46.4815 105.817 46.0005 105.419 45.6621 104.91C45.3238 104.402 45.143 103.805 45.1423 103.195Z" fill="white"/>
<path d="M43.3623 97.9369C43.8913 97.3036 44.1519 96.4897 44.0888 95.668C43.2806 95.7526 42.5341 96.1378 41.998 96.7467C41.7358 97.0442 41.5351 97.3903 41.4072 97.7652C41.2793 98.1401 41.2267 98.5364 41.2525 98.9316C41.6567 98.9358 42.0566 98.8484 42.422 98.6761C42.7875 98.5038 43.109 98.251 43.3623 97.9369Z" fill="white"/>
<path d="M56.5726 107.64L53.4872 107.64L52.7463 109.822L51.4395 109.822L54.3618 101.75L55.7196 101.75L58.642 109.822L57.3129 109.822L56.5726 107.64ZM53.8068 106.633L56.2524 106.633L55.0468 103.093L55.0131 103.093L53.8068 106.633Z" fill="white"/>
<path d="M64.9535 106.88C64.9535 108.709 63.972 109.884 62.4907 109.884C62.1155 109.903 61.7423 109.817 61.4139 109.635C61.0856 109.453 60.8152 109.182 60.6339 108.854L60.6059 108.854L60.6059 111.769L59.3945 111.769L59.3945 103.937L60.5671 103.937L60.5671 104.916L60.5894 104.916C60.779 104.589 61.0539 104.32 61.3848 104.137C61.7157 103.954 62.0902 103.863 62.4684 103.876C63.9662 103.876 64.9535 105.056 64.9535 106.88ZM63.7084 106.88C63.7084 105.688 63.091 104.905 62.1489 104.905C61.2233 104.905 60.6008 105.705 60.6008 106.88C60.6008 108.066 61.2233 108.86 62.1489 108.86C63.091 108.86 63.7084 108.082 63.7084 106.88Z" fill="white"/>
<path d="M71.4486 106.88C71.4486 108.709 70.4671 109.884 68.9858 109.884C68.6106 109.903 68.2374 109.817 67.9091 109.635C67.5807 109.453 67.3103 109.182 67.129 108.854L67.101 108.854L67.101 111.769L65.8896 111.769L65.8896 103.937L67.0622 103.937L67.0622 104.916L67.0844 104.916C67.2741 104.589 67.549 104.32 67.8799 104.137C68.2108 103.954 68.5853 103.863 68.9635 103.876C70.4614 103.876 71.4486 105.056 71.4486 106.88ZM70.2035 106.88C70.2035 105.688 69.5861 104.905 68.644 104.905C67.7185 104.905 67.0959 105.705 67.0959 106.88C67.0959 108.066 67.7185 108.86 68.644 108.86C69.5861 108.86 70.2035 108.082 70.2035 106.88Z" fill="white"/>
<path d="M75.742 107.573C75.8317 108.373 76.6115 108.899 77.6771 108.899C78.6981 108.899 79.4327 108.373 79.4327 107.652C79.4327 107.025 78.9896 106.65 77.9406 106.393L76.8916 106.141C75.4052 105.783 74.7152 105.09 74.7152 103.965C74.7152 102.572 75.9323 101.616 77.6605 101.616C79.3709 101.616 80.5434 102.572 80.5829 103.965L79.3601 103.965C79.2869 103.159 78.6191 102.673 77.6433 102.673C76.6675 102.673 75.9998 103.165 75.9998 103.881C75.9998 104.452 76.4262 104.788 77.4695 105.045L78.3613 105.263C80.0221 105.655 80.7121 106.32 80.7121 107.501C80.7121 109.011 79.5059 109.957 77.5873 109.957C75.7922 109.957 74.5802 109.033 74.502 107.573L75.742 107.573Z" fill="white"/>
<path d="M83.3261 102.544L83.3261 103.937L84.4484 103.937L84.4484 104.894L83.3261 104.894L83.3261 108.138C83.3261 108.642 83.5508 108.877 84.0441 108.877C84.1774 108.875 84.3104 108.865 84.4426 108.849L84.4426 109.8C84.2208 109.841 83.9954 109.86 83.7698 109.856C82.575 109.856 82.109 109.408 82.109 108.267L82.109 104.894L81.251 104.894L81.251 103.937L82.109 103.937L82.109 102.544L83.3261 102.544Z" fill="white"/>
<path d="M85.0977 106.88C85.0977 105.028 86.1912 103.865 87.8966 103.865C89.6076 103.865 90.6961 105.028 90.6961 106.88C90.6961 108.737 89.6133 109.895 87.8966 109.895C86.1804 109.895 85.0977 108.737 85.0977 106.88ZM89.4618 106.88C89.4618 105.61 88.8781 104.86 87.8966 104.86C86.915 104.86 86.3319 105.615 86.3319 106.88C86.3319 108.155 86.915 108.899 87.8966 108.899C88.8781 108.899 89.4618 108.155 89.4618 106.88Z" fill="white"/>
<path d="M91.6963 103.937L92.8516 103.937L92.8516 104.939L92.8797 104.939C92.9578 104.626 93.1416 104.349 93.4001 104.156C93.6586 103.962 93.9761 103.863 94.2992 103.876C94.4388 103.875 94.578 103.89 94.7142 103.921L94.7142 105.05C94.538 104.997 94.3541 104.972 94.1699 104.977C93.9939 104.97 93.8185 105.001 93.6556 105.068C93.4928 105.135 93.3464 105.236 93.2265 105.365C93.1065 105.494 93.016 105.647 92.9609 105.813C92.9059 105.98 92.8877 106.157 92.9076 106.331L92.9076 109.822L91.6963 109.822L91.6963 103.937Z" fill="white"/>
<path d="M100.299 108.094C100.136 109.162 99.0928 109.895 97.7579 109.895C96.0412 109.895 94.9756 108.748 94.9756 106.908C94.9756 105.062 96.0469 103.865 97.707 103.865C99.3398 103.865 100.367 104.983 100.367 106.768L100.367 107.181L96.1984 107.181L96.1984 107.254C96.1792 107.471 96.2063 107.689 96.2782 107.894C96.35 108.1 96.4648 108.287 96.6149 108.445C96.7651 108.603 96.9472 108.727 97.1491 108.809C97.351 108.891 97.5681 108.929 97.7859 108.921C98.0722 108.948 98.3595 108.882 98.605 108.733C98.8506 108.584 99.0413 108.359 99.1488 108.094L100.299 108.094ZM96.2041 106.337L99.1545 106.337C99.1654 106.142 99.1358 105.948 99.0676 105.765C98.9993 105.582 98.8939 105.415 98.758 105.275C98.6221 105.135 98.4586 105.024 98.2777 104.95C98.0969 104.876 97.9026 104.839 97.707 104.844C97.5097 104.842 97.3142 104.88 97.1317 104.955C96.9491 105.029 96.7832 105.139 96.6435 105.278C96.5038 105.417 96.393 105.582 96.3176 105.764C96.2422 105.946 96.2036 106.14 96.2041 106.337Z" fill="white"/>
<path d="M53.6558 95.6738C53.9098 95.6557 54.1646 95.6939 54.402 95.7859C54.6393 95.8778 54.8532 96.0211 55.0283 96.2055C55.2034 96.3898 55.3352 96.6106 55.4144 96.8519C55.4935 97.0933 55.5179 97.3491 55.4859 97.601C55.4859 98.84 54.8144 99.5523 53.6558 99.5523L52.251 99.5523L52.251 95.6738L53.6558 95.6738ZM52.8551 99.0038L53.5884 99.0038C53.7698 99.0146 53.9514 98.9849 54.12 98.9169C54.2885 98.8489 54.4397 98.7443 54.5625 98.6107C54.6854 98.4771 54.7768 98.3178 54.8302 98.1445C54.8836 97.9712 54.8975 97.7882 54.871 97.6089C54.8956 97.4302 54.8802 97.2484 54.8261 97.0764C54.7719 96.9043 54.6802 96.7464 54.5576 96.6138C54.435 96.4813 54.2846 96.3774 54.117 96.3096C53.9494 96.2419 53.7689 96.2119 53.5884 96.2219L52.8551 96.2219L52.8551 99.0038Z" fill="white"/>
<path d="M56.1687 98.088C56.1502 97.8956 56.1723 97.7016 56.2334 97.5182C56.2946 97.3349 56.3935 97.1663 56.5239 97.0233C56.6542 96.8803 56.813 96.7661 56.9902 96.6879C57.1674 96.6097 57.3591 96.5693 57.5528 96.5693C57.7466 96.5693 57.9382 96.6097 58.1154 96.6879C58.2926 96.7661 58.4515 96.8803 58.5818 97.0233C58.7121 97.1663 58.8111 97.3349 58.8722 97.5182C58.9334 97.7016 58.9555 97.8956 58.937 98.088C58.9558 98.2805 58.934 98.4749 58.873 98.6585C58.812 98.8421 58.7131 99.011 58.5828 99.1543C58.4524 99.2976 58.2934 99.4121 58.1161 99.4904C57.9387 99.5687 57.7468 99.6092 57.5528 99.6092C57.3588 99.6092 57.167 99.5687 56.9896 99.4904C56.8122 99.4121 56.6532 99.2976 56.5229 99.1543C56.3925 99.011 56.2937 98.8421 56.2327 98.6585C56.1717 98.4749 56.1499 98.2805 56.1687 98.088ZM58.3412 98.088C58.3412 97.4535 58.0554 97.0825 57.5538 97.0825C57.0503 97.0825 56.767 97.4535 56.767 98.088C56.767 98.7275 57.0503 99.0957 57.5538 99.0957C58.0554 99.0957 58.3412 98.725 58.3412 98.088Z" fill="white"/>
<path d="M62.6152 99.5529L62.0143 99.5529L61.4077 97.3972L61.3618 97.3972L60.7577 99.5529L60.1626 99.5529L59.3535 96.626L59.9411 96.626L60.4668 98.8594L60.5101 98.8594L61.1136 96.626L61.6693 96.626L62.2727 98.8594L62.3186 98.8594L62.8418 96.626L63.4211 96.626L62.6152 99.5529Z" fill="white"/>
<path d="M64.1025 96.6258L64.6602 96.6258L64.6602 97.0907L64.7034 97.0907C64.7769 96.9238 64.9007 96.7838 65.0577 96.6903C65.2147 96.5968 65.3971 96.5545 65.5793 96.5693C65.7221 96.5586 65.8655 96.5801 65.9989 96.6321C66.1323 96.6842 66.2522 96.7655 66.3497 96.87C66.4473 96.9746 66.52 97.0997 66.5625 97.2361C66.605 97.3725 66.6162 97.5166 66.5953 97.6579L66.5953 99.5527L66.016 99.5527L66.016 97.803C66.016 97.3326 65.811 97.0987 65.3826 97.0987C65.2857 97.0942 65.1889 97.1106 65.0989 97.1469C65.0089 97.1832 64.9278 97.2385 64.8613 97.3089C64.7947 97.3794 64.7442 97.4634 64.7132 97.5551C64.6822 97.6468 64.6715 97.7442 64.6818 97.8404L64.6818 99.5527L64.1025 99.5527L64.1025 96.6258Z" fill="white"/>
<path d="M67.5176 95.4834L68.0968 95.4834L68.0968 99.5529L67.5176 99.5529L67.5176 95.4834Z" fill="white"/>
<path d="M68.903 98.088C68.8846 97.8957 68.9067 97.7016 68.9678 97.5182C69.029 97.3349 69.128 97.1663 69.2583 97.0233C69.3886 96.8803 69.5475 96.7661 69.7247 96.6879C69.9019 96.6097 70.0936 96.5693 70.2874 96.5693C70.4811 96.5693 70.6728 96.6097 70.85 96.6879C71.0272 96.7661 71.1861 96.8803 71.3164 97.0233C71.4467 97.1663 71.5457 97.3349 71.6069 97.5182C71.668 97.7016 71.6901 97.8957 71.6717 98.088C71.6905 98.2806 71.6686 98.4749 71.6076 98.6586C71.5466 98.8422 71.4477 99.0111 71.3173 99.1544C71.187 99.2976 71.028 99.4121 70.8506 99.4904C70.6732 99.5688 70.4814 99.6093 70.2873 99.6093C70.0933 99.6093 69.9015 99.5688 69.7241 99.4904C69.5467 99.4121 69.3877 99.2976 69.2574 99.1544C69.127 99.0111 69.0281 98.8422 68.9671 98.6586C68.9061 98.4749 68.8842 98.2806 68.903 98.088ZM71.0755 98.088C71.0755 97.4536 70.7897 97.0826 70.2881 97.0826C69.7846 97.0826 69.5014 97.4536 69.5014 98.088C69.5014 98.7276 69.7847 99.0957 70.2881 99.0957C70.7897 99.0957 71.0755 98.725 71.0755 98.088Z" fill="white"/>
<path d="M72.2803 98.725C72.2803 98.1981 72.6737 97.8944 73.3719 97.8512L74.167 97.8055L74.167 97.5529C74.167 97.2438 73.962 97.0692 73.5661 97.0692C73.2427 97.0692 73.0187 97.1876 72.9544 97.3945L72.3936 97.3945C72.4528 96.8918 72.927 96.5693 73.5928 96.5693C74.3287 96.5693 74.7437 96.9346 74.7437 97.5529L74.7437 99.5527L74.1861 99.5527L74.1861 99.1414L74.1403 99.1414C74.0472 99.2889 73.9166 99.4092 73.7617 99.49C73.6068 99.5707 73.4332 99.609 73.2586 99.601C73.1354 99.6137 73.0109 99.6006 72.8931 99.5625C72.7752 99.5243 72.6667 99.462 72.5746 99.3794C72.4824 99.2969 72.4086 99.196 72.3579 99.0833C72.3072 98.9706 72.2808 98.8485 72.2803 98.725ZM74.167 98.4749L74.167 98.2302L73.4502 98.2759C73.046 98.3029 72.8627 98.44 72.8627 98.698C72.8627 98.9614 73.0919 99.1147 73.407 99.1147C73.4993 99.1241 73.5926 99.1148 73.6812 99.0874C73.7699 99.06 73.8521 99.0152 73.923 98.9555C73.9939 98.8958 74.0521 98.8225 74.094 98.7399C74.1359 98.6574 74.1607 98.5672 74.167 98.4749Z" fill="white"/>
<path d="M75.5059 98.0882C75.5059 97.1633 75.9826 96.5774 76.7242 96.5774C76.9076 96.569 77.0897 96.6128 77.2491 96.7037C77.4085 96.7947 77.5386 96.929 77.6243 97.0909L77.6676 97.0909L77.6676 95.4834L78.2468 95.4834L78.2468 99.5529L77.6918 99.5529L77.6918 99.0904L77.6459 99.0904C77.5536 99.2513 77.419 99.3839 77.2565 99.474C77.094 99.564 76.91 99.6079 76.7242 99.6011C75.9775 99.6011 75.5059 99.0152 75.5059 98.0882ZM76.1042 98.0882C76.1042 98.709 76.3977 99.0825 76.8885 99.0825C77.3767 99.0825 77.6784 98.7036 77.6784 98.0907C77.6784 97.4807 77.3735 97.0963 76.8885 97.0963C76.4008 97.0963 76.1042 97.4724 76.1042 98.0882Z" fill="white"/>
<path d="M80.6433 98.088C80.6248 97.8956 80.6469 97.7016 80.708 97.5182C80.7692 97.3349 80.8681 97.1663 80.9985 97.0233C81.1288 96.8803 81.2876 96.7661 81.4648 96.6879C81.642 96.6097 81.8337 96.5693 82.0274 96.5693C82.2212 96.5693 82.4128 96.6097 82.59 96.6879C82.7672 96.7661 82.9261 96.8803 83.0564 97.0233C83.1867 97.1663 83.2857 97.3349 83.3468 97.5182C83.408 97.7016 83.4301 97.8956 83.4116 98.088C83.4304 98.2805 83.4086 98.4749 83.3476 98.6585C83.2866 98.8421 83.1877 99.011 83.0574 99.1543C82.927 99.2976 82.768 99.4121 82.5907 99.4904C82.4133 99.5687 82.2214 99.6092 82.0274 99.6092C81.8334 99.6092 81.6416 99.5687 81.4642 99.4904C81.2868 99.4121 81.1279 99.2976 80.9975 99.1543C80.8671 99.011 80.7683 98.8421 80.7073 98.6585C80.6463 98.4749 80.6245 98.2805 80.6433 98.088ZM82.8158 98.088C82.8158 97.4535 82.53 97.0825 82.0284 97.0825C81.5249 97.0825 81.2416 97.4535 81.2416 98.088C81.2416 98.7275 81.5249 99.0957 82.0284 99.0957C82.53 99.0957 82.8158 98.725 82.8158 98.088Z" fill="white"/>
<path d="M84.1895 96.6258L84.7471 96.6258L84.7471 97.0907L84.7904 97.0907C84.8638 96.9238 84.9876 96.7838 85.1446 96.6903C85.3016 96.5968 85.484 96.5545 85.6662 96.5693C85.8091 96.5586 85.9525 96.5801 86.0858 96.6321C86.2192 96.6842 86.3391 96.7655 86.4367 96.87C86.5342 96.9746 86.607 97.0997 86.6495 97.2361C86.692 97.3725 86.7031 97.5166 86.6822 97.6579L86.6822 99.5527L86.1029 99.5527L86.1029 97.803C86.1029 97.3326 85.898 97.0987 85.4696 97.0987C85.3726 97.0942 85.2758 97.1106 85.1858 97.1469C85.0958 97.1832 85.0148 97.2385 84.9482 97.3089C84.8816 97.3794 84.8311 97.4634 84.8001 97.5551C84.7692 97.6468 84.7584 97.7442 84.7687 97.8404L84.7687 99.5527L84.1895 99.5527L84.1895 96.6258Z" fill="white"/>
<path d="M89.9541 95.897L89.9541 96.639L90.59 96.639L90.59 97.1256L89.9541 97.1256L89.9541 98.6306C89.9541 98.9372 90.0807 99.0714 90.3691 99.0714C90.4429 99.0712 90.5167 99.0667 90.59 99.0581L90.59 99.5393C90.4859 99.5578 90.3805 99.5677 90.2749 99.5688C89.6307 99.5688 89.3742 99.3428 89.3742 98.7785L89.3742 97.1255L88.9082 97.1255L88.9082 96.639L89.3742 96.639L89.3742 95.897L89.9541 95.897Z" fill="white"/>
<path d="M91.3818 95.4834L91.956 95.4834L91.956 97.0963L92.0018 97.0963C92.0788 96.9278 92.2061 96.787 92.3662 96.6932C92.5264 96.5993 92.7116 96.557 92.8968 96.572C93.0389 96.5643 93.1809 96.588 93.3127 96.6413C93.4446 96.6946 93.563 96.7763 93.6596 96.8805C93.7561 96.9847 93.8284 97.1089 93.8713 97.2442C93.9142 97.3795 93.9266 97.5226 93.9076 97.6632L93.9076 99.5529L93.3278 99.5529L93.3278 97.8057C93.3278 97.3382 93.1094 97.1014 92.7002 97.1014C92.6006 97.0933 92.5004 97.1069 92.4067 97.1414C92.313 97.1759 92.228 97.2304 92.1576 97.3011C92.0872 97.3717 92.0331 97.4569 91.9992 97.5506C91.9653 97.6443 91.9523 97.7442 91.9611 97.8435L91.9611 99.5529L91.3819 99.5529L91.3818 95.4834Z" fill="white"/>
<path d="M97.2857 98.7625C97.207 99.03 97.0365 99.2614 96.804 99.4162C96.5715 99.571 96.2918 99.6393 96.0139 99.6093C95.8205 99.6144 95.6283 99.5774 95.4507 99.501C95.2731 99.4246 95.1143 99.3106 94.9853 99.1669C94.8563 99.0231 94.7602 98.8531 94.7037 98.6686C94.6472 98.4842 94.6316 98.2896 94.658 98.0985C94.6323 97.9069 94.6481 97.7119 94.7045 97.5269C94.7609 97.3418 94.8565 97.171 94.9848 97.026C95.1131 96.881 95.2712 96.7652 95.4483 96.6864C95.6254 96.6077 95.8174 96.5677 96.0113 96.5694C96.828 96.5694 97.3207 97.1258 97.3207 98.0449L97.3207 98.2464L95.2481 98.2464L95.2481 98.2788C95.239 98.3862 95.2526 98.4943 95.2878 98.5962C95.3231 98.6981 95.3794 98.7915 95.453 98.8705C95.5266 98.9494 95.6159 99.0122 95.7152 99.0547C95.8146 99.0972 95.9217 99.1185 96.0298 99.1173C96.1683 99.1339 96.3087 99.109 96.4331 99.0458C96.5574 98.9827 96.6601 98.884 96.7281 98.7625L97.2857 98.7625ZM95.2481 97.8192L96.7306 97.8192C96.7379 97.721 96.7245 97.6223 96.6913 97.5296C96.6581 97.4368 96.6058 97.352 96.5377 97.2806C96.4697 97.2092 96.3874 97.1528 96.2962 97.1149C96.205 97.0771 96.1069 97.0588 96.0081 97.061C95.9079 97.0598 95.8085 97.0785 95.7157 97.1162C95.6229 97.1538 95.5386 97.2097 95.4678 97.2803C95.397 97.351 95.341 97.4351 95.3033 97.5276C95.2656 97.6202 95.2468 97.7193 95.2481 97.8192Z" fill="white"/>
</g>
<defs>
<clipPath id="clip0_2761_5780">
<rect width="78" height="26" fill="white" transform="translate(29 90)"/>
</clipPath>
</defs>
</svg>
