<svg width="17" height="16" viewBox="0 0 17 16" fill="none" xmlns="http://www.w3.org/2000/svg">
<path fill-rule="evenodd" clip-rule="evenodd" d="M4.58688 5.41754C3.12577 6.11078 1.62454 6.82311 0.251764 7.6448C-0.465046 8.21514 0.487643 8.61859 1.38145 8.99701C1.52354 9.05718 1.66411 9.11668 1.79629 9.17612C1.90629 9.2129 2.01811 9.2516 2.13145 9.29083C3.12552 9.63498 4.23391 10.0187 5.19899 9.44147C6.78432 8.45184 8.28038 7.30772 9.77534 6.16447C10.2651 5.78988 10.7548 5.41542 11.2474 5.04651C11.2705 5.03047 11.2965 5.01211 11.325 4.9921C11.7446 4.69643 12.6885 4.03158 12.3394 4.94771C11.5138 5.92883 10.6295 6.79729 9.74046 7.67056C9.14123 8.25906 8.53982 8.84974 7.95275 9.47846C7.44146 9.92992 6.91048 10.8378 7.48303 11.47C8.80175 12.4732 10.1411 13.4521 11.4796 14.4304C11.9152 14.7487 12.3507 15.0671 12.7854 15.3862C13.5221 16.0253 14.6734 15.5083 14.8354 14.5095C14.9074 14.0501 14.9797 13.5907 15.052 13.1312C15.4517 10.5921 15.8515 8.05208 16.2046 5.50471C16.2526 5.10509 16.307 4.70554 16.3615 4.30579C16.4934 3.33689 16.6255 2.3668 16.6668 1.39268C16.5604 0.420539 15.4758 0.634317 14.8722 0.852916C11.7696 2.13585 8.69795 3.51388 5.6385 4.91621C5.29191 5.08304 4.94058 5.24973 4.58688 5.41754Z" fill="#171619"/>
</svg>
