<svg width="17" height="15" viewBox="0 0 17 15" fill="none" xmlns="http://www.w3.org/2000/svg">
<path fill-rule="evenodd" clip-rule="evenodd" d="M4.58676 4.75006C3.12564 5.4433 1.62442 6.15563 0.251642 6.97732C-0.465168 7.54766 0.487521 7.95111 1.38133 8.32953C1.52341 8.38969 1.66398 8.4492 1.79617 8.50864C1.90617 8.54542 2.01799 8.58412 2.13133 8.62335C3.1254 8.9675 4.23378 9.35127 5.19886 8.77399C6.7842 7.78436 8.28025 6.64024 9.77522 5.49699C10.265 5.1224 10.7546 4.74794 11.2473 4.37903C11.2704 4.36299 11.2964 4.34463 11.3249 4.32462C11.7445 4.02895 12.6884 3.3641 12.3392 4.28023C11.5137 5.26135 10.6294 6.12981 9.74034 7.00308C9.14111 7.59158 8.5397 8.18226 7.95263 8.81098C7.44134 9.26244 6.91036 10.1703 7.48291 10.8025C8.80163 11.8057 10.141 12.7846 11.4795 13.7629C11.915 14.0813 12.3506 14.3996 12.7853 14.7187C13.522 15.3578 14.6733 14.8408 14.8353 13.8421C14.9073 13.3826 14.9796 12.9232 15.0519 12.4638C15.4516 9.92464 15.8513 7.3846 16.2045 4.83723C16.2525 4.43761 16.3069 4.03806 16.3613 3.63831C16.4933 2.6694 16.6254 1.69932 16.6667 0.725197C16.5603 -0.246941 15.4756 -0.0331631 14.872 0.185436C11.7694 1.46837 8.69783 2.8464 5.63838 4.24873C5.29179 4.41556 4.94046 4.58225 4.58676 4.75006Z" fill="white"/>
</svg>
