<svg width="29" height="29" viewBox="0 0 29 29" fill="none" xmlns="http://www.w3.org/2000/svg">
<path opacity="0.7" fill-rule="evenodd" clip-rule="evenodd" d="M14.5004 29C22.5078 29 29 22.5084 29 14.5C29 6.49163 22.5078 0 14.5004 0C6.49224 0 0 6.49163 0 14.5C0 22.5084 6.49224 29 14.5004 29ZM20.6834 9.8456L16.028 14.5002L20.6834 19.1557C21.1055 19.5779 21.1055 20.2616 20.6834 20.6838C20.4723 20.8949 20.1952 21 19.9189 21C19.6427 21 19.3664 20.8949 19.1553 20.6838L14.5 16.0283L9.84467 20.6838C9.63358 20.8949 9.35733 21 9.08109 21C8.80484 21 8.52773 20.8949 8.31664 20.6838C7.89445 20.2616 7.89445 19.5779 8.31664 19.1557L12.972 14.5002L8.31664 9.8456C7.89445 9.4234 7.89445 8.73885 8.31664 8.31665C8.73882 7.89445 9.42249 7.89445 9.84467 8.31665L14.5 12.9721L19.1553 8.31665C19.5766 7.89445 20.2612 7.89445 20.6834 8.31665C21.1055 8.73885 21.1055 9.4234 20.6834 9.8456Z" fill="#1C1C1E"/>
</svg>
