<svg width="184" height="456" viewBox="0 0 184 456" fill="none" xmlns="http://www.w3.org/2000/svg">
<path opacity="0.2" d="M109.896 2.75483C110.336 2.05251 110.122 1.12699 109.42 0.687642C108.718 0.248291 107.792 0.461474 107.353 1.1638L109.896 2.75483ZM183.185 445.02C183.771 444.434 183.771 443.484 183.185 442.899L173.639 433.353C173.053 432.767 172.104 432.767 171.518 433.353C170.932 433.939 170.932 434.888 171.518 435.474L180.003 443.959L171.518 452.445C170.932 453.03 170.932 453.98 171.518 454.566C172.104 455.152 173.053 455.152 173.639 454.566L183.185 445.02ZM107.353 1.1638C38.1674 111.76 8.06959 194.864 1.96755 257.345C-4.14104 319.893 13.8036 361.776 40.6039 389.747C67.35 417.662 102.771 431.57 131.404 438.511C145.733 441.984 158.397 443.721 167.483 444.589C172.026 445.024 175.677 445.241 178.197 445.35C179.456 445.405 180.433 445.432 181.098 445.446C181.43 445.452 181.684 445.456 181.857 445.458C181.943 445.458 182.009 445.459 182.053 445.459C182.076 445.459 182.093 445.459 182.105 445.459C182.111 445.459 182.116 445.459 182.119 445.459C182.122 445.459 182.124 445.459 182.124 443.959C182.124 442.459 182.124 442.459 182.122 442.459C182.12 442.459 182.117 442.459 182.112 442.459C182.103 442.459 182.088 442.459 182.068 442.459C182.029 442.459 181.968 442.459 181.887 442.458C181.725 442.456 181.481 442.453 181.16 442.446C180.517 442.433 179.562 442.406 178.326 442.353C175.854 442.246 172.255 442.032 167.768 441.603C158.793 440.745 146.273 439.028 132.111 435.595C103.759 428.723 68.9615 415.007 42.7701 387.672C16.6329 360.393 -1.07868 319.401 4.95334 257.636C10.9919 195.805 40.8316 113.158 109.896 2.75483L107.353 1.1638Z" fill="#171619"/>
</svg>
