<svg width="40" height="40" viewBox="0 0 40 40" fill="none" xmlns="http://www.w3.org/2000/svg">
<circle cx="19.9999" cy="20" r="20" fill="white"/>
<path d="M11.92 16.5112C12.173 16.6897 12.9356 17.22 14.2079 18.1016C15.4802 18.9833 16.4549 19.6621 17.132 20.1382C17.2064 20.1904 17.3644 20.3039 17.6062 20.4787C17.848 20.6537 18.049 20.7951 18.2088 20.9029C18.3688 21.0107 18.5623 21.1317 18.7893 21.2656C19.0163 21.3993 19.2302 21.5 19.4311 21.5666C19.632 21.6337 19.818 21.667 19.9891 21.667H20.0003H20.0116C20.1827 21.667 20.3688 21.6337 20.5697 21.5666C20.7705 21.5 20.9847 21.3992 21.2114 21.2656C21.4383 21.1315 21.6317 21.0107 21.7917 20.9029C21.9517 20.7951 22.1525 20.6537 22.3944 20.4787C22.6361 20.3037 22.7944 20.1904 22.8688 20.1382C23.5532 19.6621 25.2944 18.453 28.0919 16.511C28.635 16.1317 29.0888 15.674 29.4533 15.1383C29.8181 14.6027 30.0003 14.041 30.0003 13.4532C30.0003 12.9621 29.8235 12.5417 29.4701 12.192C29.1166 11.8423 28.6981 11.6675 28.2146 11.6675H11.786C11.2131 11.6675 10.7723 11.8609 10.4635 12.2477C10.1547 12.6347 10.0004 13.1183 10.0004 13.6986C10.0004 14.1673 10.205 14.6753 10.6142 15.2221C11.0233 15.769 11.4587 16.1988 11.92 16.5112Z" fill="#171619"/>
<path d="M28.8841 17.7029C26.4439 19.3545 24.591 20.6381 23.3263 21.5534C22.9022 21.8658 22.5581 22.1096 22.2939 22.2843C22.0297 22.4592 21.6783 22.6378 21.2393 22.82C20.8003 23.0024 20.3913 23.0934 20.0118 23.0934H20.0004H19.9892C19.6097 23.0934 19.2004 23.0024 18.7615 22.82C18.3226 22.6378 17.971 22.4592 17.7068 22.2843C17.4428 22.1096 17.0986 21.8658 16.6746 21.5534C15.67 20.8168 13.8211 19.5332 11.1277 17.7029C10.7035 17.4203 10.3278 17.0965 10.0004 16.7319V25.5933C10.0004 26.0846 10.1751 26.5048 10.5249 26.8545C10.8746 27.2044 11.295 27.3792 11.7861 27.3792H28.2147C28.7057 27.3792 29.1261 27.2044 29.4758 26.8545C29.8257 26.5047 30.0004 26.0847 30.0004 25.5933V16.7319C29.6804 17.0889 29.3085 17.4128 28.8841 17.7029Z" fill="#171619"/>
</svg>
