<svg width="60" height="86" viewBox="0 0 60 86" fill="none" xmlns="http://www.w3.org/2000/svg">
<rect width="60" height="86" rx="10" fill="#FD473B"/>
<path d="M26.3125 51.4531H33.4922C34.6875 51.4531 35.4609 50.7266 35.5156 49.5234L36.0469 38.2656H36.9062C37.2969 38.2656 37.6016 37.9688 37.6016 37.5781C37.6016 37.1953 37.2969 36.8984 36.9062 36.8984H33.4297V35.7266C33.4297 34.5312 32.6719 33.8203 31.375 33.8203H28.4062C27.1172 33.8203 26.3516 34.5312 26.3516 35.7266V36.8984H22.8828C22.5078 36.8984 22.1953 37.1953 22.1953 37.5781C22.1953 37.9688 22.5078 38.2656 22.8828 38.2656H23.75L24.2812 49.5312C24.3359 50.7344 25.1016 51.4531 26.3125 51.4531ZM27.7891 35.7969C27.7891 35.3906 28.0703 35.1328 28.5078 35.1328H31.2734C31.7109 35.1328 31.9922 35.3906 31.9922 35.7969V36.8984H27.7891V35.7969ZM26.4609 50.0703C26.0312 50.0703 25.7188 49.7578 25.6953 49.2969L25.1641 38.2656H34.6016L34.0938 49.2969C34.0781 49.7578 33.7656 50.0703 33.3203 50.0703H26.4609ZM27.5938 48.8125C27.9219 48.8125 28.1328 48.6016 28.125 48.2969L27.8906 40.1094C27.8828 39.7969 27.6641 39.5938 27.3516 39.5938C27.0234 39.5938 26.8125 39.8047 26.8203 40.1094L27.0547 48.2969C27.0625 48.6094 27.2812 48.8125 27.5938 48.8125ZM29.8984 48.8125C30.2266 48.8125 30.4453 48.6016 30.4453 48.2969V40.1094C30.4453 39.8047 30.2266 39.5938 29.8984 39.5938C29.5703 39.5938 29.3516 39.8047 29.3516 40.1094V48.2969C29.3516 48.6016 29.5703 48.8125 29.8984 48.8125ZM32.2031 48.8125C32.5156 48.8125 32.7266 48.6094 32.7344 48.2969L32.9766 40.1094C32.9844 39.8047 32.7656 39.5938 32.4453 39.5938C32.1328 39.5938 31.9141 39.7969 31.9062 40.1094L31.6641 48.2969C31.6562 48.6016 31.875 48.8125 32.2031 48.8125Z" fill="white"/>
</svg>
